<svg width="998" height="482" viewBox="0 0 998 482" fill="none" xmlns="http://www.w3.org/2000/svg">
<g filter="url(#filter0_d_293_684)">
<path d="M40.5 213V210.5H43.75C48.25 210.5 52 209.833 55 208.5C58.1667 207.167 60.5 205.167 62 202.5C63.5 199.833 64.25 196.5 64.25 192.5L64.25 54C64.25 50.1667 63.5 47 62 44.5C60.5 42 58.1667 40.1667 55 39C52 37.6667 48.25 37 43.75 37H40.5V34.5L113.25 34.5V37H110C105.5 37 101.667 37.6667 98.5 39C95.5 40.3333 93.25 42.3333 91.75 45C90.25 47.6667 89.5 51 89.5 55L89.5 139L153.25 66.75C156.25 63.4167 158.667 60.5 160.5 58C162.5 55.3333 163.917 53 164.75 51C165.75 48.8333 166.25 47 166.25 45.5C166.25 43.5 165.417 41.9167 163.75 40.75C162.083 39.4167 159.5 38.5 156 38C152.5 37.5 148.083 37.25 142.75 37.25V34.5L198 34.5V37.25C194.333 37.25 190.75 38 187.25 39.5C183.75 40.8333 180 43.25 176 46.75C172 50.25 167.333 55 162 61L123.5 104.25L178.5 182.25C182.333 187.583 185.667 192.083 188.5 195.75C191.5 199.417 194.083 202.333 196.25 204.5C198.583 206.667 200.667 208.25 202.5 209.25C204.5 210.083 206.5 210.5 208.5 210.5H209V213H206.25C197.917 213 191 212.667 185.5 212C180.167 211.333 175.75 210.167 172.25 208.5C168.75 206.833 165.583 204.583 162.75 201.75C159.917 198.75 156.917 195 153.75 190.5L106.75 123.25L89.5 143V192.5C89.5 196.5 90.25 199.833 91.75 202.5C93.25 205.167 95.5 207.167 98.5 208.5C101.667 209.833 105.5 210.5 110 210.5H113.25V213H40.5ZM206.049 213V210.5H213.299C216.965 210.5 220.049 209.917 222.549 208.75C225.049 207.583 227.215 205.583 229.049 202.75C230.882 199.917 232.632 196 234.299 191L288.799 34.5H301.549L364.299 197.25C365.632 200.583 366.966 203.25 368.299 205.25C369.632 207.083 371.132 208.417 372.799 209.25C374.632 210.083 376.716 210.5 379.049 210.5H382.299V213H313.549V210.5H319.299C325.632 210.5 330.216 209.75 333.049 208.25C335.882 206.75 337.299 204.083 337.299 200.25C337.299 199.25 337.216 198.25 337.049 197.25C336.882 196.083 336.632 194.833 336.299 193.5C336.132 192.167 335.716 190.75 335.049 189.25L319.799 148.25L252.049 148.25L238.299 187.5C237.799 188.833 237.382 190.167 237.049 191.5C236.715 192.833 236.465 194.083 236.299 195.25C236.132 196.25 236.049 197.25 236.049 198.25C236.049 202.75 238.049 205.917 242.049 207.75C246.049 209.583 252.465 210.5 261.299 210.5H267.049V213H206.049ZM252.799 145.75L318.799 145.75L300.549 97C298.382 91.3333 296.382 85.9167 294.549 80.75C292.715 75.5833 290.965 70.6667 289.299 66C287.799 61.1667 286.382 56.5 285.049 52C283.882 55.6667 282.799 59.0833 281.799 62.25C280.799 65.25 279.799 68.25 278.799 71.25C277.799 74.25 276.632 77.5 275.299 81C274.132 84.3333 272.799 88.25 271.299 92.75L252.799 145.75ZM407.426 213V210.5H410.676C415.176 210.5 418.926 209.833 421.926 208.5C425.092 207.167 427.426 205.167 428.926 202.5C430.426 199.833 431.176 196.5 431.176 192.5L431.176 37L410.676 37C402.342 37 395.676 38 390.676 40C385.676 42 382.009 45.4167 379.676 50.25C377.342 55.0833 375.926 61.6667 375.426 70L374.926 78.25H372.426L373.926 34.5L514.176 34.5L515.676 78.25H513.176L512.676 70C512.176 61.6667 510.759 55.0833 508.426 50.25C506.092 45.4167 502.426 42 497.426 40C492.592 38 485.926 37 477.426 37H456.426L456.426 192.5C456.426 196.5 457.176 199.833 458.676 202.5C460.176 205.167 462.426 207.167 465.426 208.5C468.592 209.833 472.426 210.5 476.926 210.5H480.176V213L407.426 213ZM530.246 213V210.5H533.496C537.996 210.5 541.746 209.833 544.746 208.5C547.913 207.167 550.246 205.167 551.746 202.5C553.246 199.833 553.996 196.5 553.996 192.5V54C553.996 50.1667 553.246 47 551.746 44.5C550.246 42 547.913 40.1667 544.746 39C541.746 37.6667 537.996 37 533.496 37H530.246V34.5L655.996 34.5L657.496 78.25H654.996L654.496 70C653.996 61.6667 652.579 55.0833 650.246 50.25C647.913 45.4167 644.246 42 639.246 40C634.413 38 627.746 37 619.246 37L579.246 37V118.25L641.996 118.25V120.75L579.246 120.75V210.5H625.496C634.496 210.5 641.663 209.5 646.996 207.5C652.329 205.5 656.163 202.083 658.496 197.25C660.996 192.417 662.496 185.833 662.996 177.5L663.496 169.25H665.996L664.246 213L530.246 213ZM40.5 433V430.5H43.75C48.25 430.5 52 429.833 55 428.5C58.1667 427.167 60.5 425.167 62 422.5C63.5 419.833 64.25 416.5 64.25 412.5L64.25 274C64.25 270.167 63.5 267 62 264.5C60.5 262 58.1667 260.167 55 259C52 257.667 48.25 257 43.75 257H40.5V254.5H113.25V257H110C105.5 257 101.667 257.667 98.5 259C95.5 260.333 93.25 262.333 91.75 265C90.25 267.667 89.5 271 89.5 275L89.5 359L153.25 286.75C156.25 283.417 158.667 280.5 160.5 278C162.5 275.333 163.917 273 164.75 271C165.75 268.833 166.25 267 166.25 265.5C166.25 263.5 165.417 261.917 163.75 260.75C162.083 259.417 159.5 258.5 156 258C152.5 257.5 148.083 257.25 142.75 257.25V254.5H198V257.25C194.333 257.25 190.75 258 187.25 259.5C183.75 260.833 180 263.25 176 266.75C172 270.25 167.333 275 162 281L123.5 324.25L178.5 402.25C182.333 407.583 185.667 412.083 188.5 415.75C191.5 419.417 194.083 422.333 196.25 424.5C198.583 426.667 200.667 428.25 202.5 429.25C204.5 430.083 206.5 430.5 208.5 430.5H209V433L206.25 433C197.917 433 191 432.667 185.5 432C180.167 431.333 175.75 430.167 172.25 428.5C168.75 426.833 165.583 424.583 162.75 421.75C159.917 418.75 156.917 415 153.75 410.5L106.75 343.25L89.5 363V412.5C89.5 416.5 90.25 419.833 91.75 422.5C93.25 425.167 95.5 427.167 98.5 428.5C101.667 429.833 105.5 430.5 110 430.5H113.25V433H40.5ZM296.549 435.5C283.382 435.5 272.049 433.667 262.549 430C253.215 426.167 246.049 420.083 241.049 411.75C236.049 403.417 233.549 392.5 233.549 379V274C233.549 270.167 232.799 267 231.299 264.5C229.799 262 227.465 260.167 224.299 259C221.299 257.667 217.549 257 213.049 257H209.799V254.5H282.549V257H279.299C274.799 257 270.965 257.667 267.799 259C264.799 260.333 262.549 262.333 261.049 265C259.549 267.5 258.799 270.75 258.799 274.75V380.5C258.799 393.833 260.549 404.25 264.049 411.75C267.715 419.25 272.715 424.5 279.049 427.5C285.382 430.333 292.549 431.75 300.549 431.75C311.882 431.75 321.632 429.75 329.799 425.75C337.966 421.75 344.216 416 348.549 408.5C353.049 400.833 355.299 391.833 355.299 381.5V274C355.299 270.167 354.549 267 353.049 264.5C351.549 262 349.216 260.167 346.049 259C343.049 257.667 339.299 257 334.799 257H331.549V254.5H381.549V257H378.299C373.799 257 369.966 257.667 366.799 259C363.799 260.333 361.549 262.333 360.049 265C358.549 267.667 357.799 271 357.799 275V382C357.799 393 355.466 402.5 350.799 410.5C346.132 418.5 339.215 424.667 330.049 429C321.049 433.333 309.882 435.5 296.549 435.5ZM394.748 433V430.5H397.998C402.498 430.5 406.248 429.833 409.248 428.5C412.415 427.167 414.748 425.167 416.248 422.5C417.748 419.833 418.498 416.5 418.498 412.5V274C418.498 270.167 417.748 267 416.248 264.5C414.748 262 412.415 260.167 409.248 259C406.248 257.667 402.498 257 397.998 257H394.748V254.5H467.498V257H464.248C459.748 257 455.915 257.667 452.748 259C449.748 260.333 447.498 262.333 445.998 265C444.498 267.667 443.748 271 443.748 275V430.5H489.998C498.831 430.5 505.831 429.25 510.998 426.75C516.331 424.083 520.248 419.583 522.748 413.25C525.248 406.917 526.831 398.333 527.498 387.5L527.998 379.25H530.498L528.748 433H394.748ZM550.51 433V430.5H553.76C558.26 430.5 562.01 429.833 565.01 428.5C568.176 427.167 570.51 425.167 572.01 422.5C573.51 419.833 574.26 416.5 574.26 412.5L574.26 274C574.26 270.167 573.51 267 572.01 264.5C570.51 262 568.176 260.167 565.01 259C562.01 257.667 558.26 257 553.76 257H550.51V254.5H623.26V257H620.01C615.51 257 611.676 257.667 608.51 259C605.51 260.333 603.26 262.333 601.76 265C600.26 267.667 599.51 271 599.51 275L599.51 412.5C599.51 416.5 600.26 419.833 601.76 422.5C603.26 425.167 605.51 427.167 608.51 428.5C611.676 429.833 615.51 430.5 620.01 430.5H623.26V433L550.51 433ZM697.307 435.5C689.14 435.5 681.807 434.667 675.307 433C668.807 431.167 663.223 428.75 658.557 425.75C654.057 422.583 650.64 418.917 648.307 414.75C645.973 410.583 644.807 406 644.807 401C644.807 397.167 645.473 394 646.807 391.5C648.307 388.833 650.39 386.833 653.057 385.5C655.723 384.167 658.973 383.5 662.807 383.5C662.973 394.333 664.307 403.5 666.807 411C669.473 418.333 673.473 423.833 678.807 427.5C684.14 431.167 690.89 433 699.057 433C709.723 433 718.307 429.917 724.807 423.75C731.473 417.417 734.807 408.167 734.807 396C734.807 388.5 733.39 382.417 730.557 377.75C727.89 373.083 723.473 368.917 717.307 365.25C711.307 361.417 703.39 357.25 693.557 352.75C688.39 350.25 683.057 347.583 677.557 344.75C672.223 341.75 667.223 338.25 662.557 334.25C658.057 330.083 654.39 325.083 651.557 319.25C648.89 313.25 647.557 306.167 647.557 298C647.557 288 649.723 279.583 654.057 272.75C658.39 265.917 664.473 260.75 672.307 257.25C680.307 253.75 689.64 252 700.307 252C710.14 252 718.64 253.333 725.807 256C733.14 258.667 738.807 262.167 742.807 266.5C746.973 270.833 749.057 275.583 749.057 280.75C749.057 285.583 747.223 289.417 743.557 292.25C739.89 294.917 735.14 296.25 729.307 296.25C729.307 287.083 728.307 279.417 726.307 273.25C724.473 267.083 721.39 262.417 717.057 259.25C712.723 256.083 707.057 254.5 700.057 254.5C693.723 254.5 688.14 255.833 683.307 258.5C678.473 261 674.723 264.833 672.057 270C669.557 275 668.307 281.333 668.307 289C668.307 297.167 669.807 303.75 672.807 308.75C675.807 313.75 680.307 318.083 686.307 321.75C692.473 325.25 700.14 329.167 709.307 333.5C717.64 337.333 725.307 341.333 732.307 345.5C739.473 349.667 745.223 354.917 749.557 361.25C753.89 367.583 756.057 375.917 756.057 386.25C756.057 396.417 753.723 405.167 749.057 412.5C744.557 419.833 737.89 425.5 729.057 429.5C720.39 433.5 709.807 435.5 697.307 435.5ZM778.543 433V430.5H781.793C786.293 430.5 790.043 429.833 793.043 428.5C796.21 427.167 798.543 425.167 800.043 422.5C801.543 419.833 802.293 416.5 802.293 412.5L802.293 274C802.293 270.167 801.543 267 800.043 264.5C798.543 262 796.21 260.167 793.043 259C790.043 257.667 786.293 257 781.793 257H778.543V254.5L851.293 254.5V257H848.043C843.543 257 839.71 257.667 836.543 259C833.543 260.333 831.293 262.333 829.793 265C828.293 267.667 827.543 271 827.543 275V338.5H908.543V275C908.543 271 907.793 267.667 906.293 265C904.793 262.333 902.543 260.333 899.543 259C896.543 257.667 892.71 257 888.043 257H884.793V254.5H957.543V257H954.293C949.793 257 946.043 257.667 943.043 259C940.043 260.167 937.71 262 936.043 264.5C934.543 267 933.793 270.167 933.793 274L933.793 412.5C933.793 416.5 934.543 419.833 936.043 422.5C937.71 425.167 940.043 427.167 943.043 428.5C946.043 429.833 949.793 430.5 954.293 430.5H957.543V433L884.793 433V430.5H888.043C892.71 430.5 896.543 429.833 899.543 428.5C902.543 427.167 904.793 425.167 906.293 422.5C907.793 419.833 908.543 416.5 908.543 412.5L908.543 341H827.543L827.543 412.5C827.543 416.5 828.293 419.833 829.793 422.5C831.293 425.167 833.543 427.167 836.543 428.5C839.71 429.833 843.543 430.5 848.043 430.5H851.293V433H778.543Z" fill="white"/>
<path d="M40.5 213H38.5V215H40.5V213ZM40.5 210.5L40.5 208.5H38.5V210.5H40.5ZM55 208.5L54.2239 206.657L54.2057 206.664L54.1877 206.672L55 208.5ZM62 202.5L63.7432 203.481L62 202.5ZM62 44.5L63.715 43.471H63.715L62 44.5ZM55 39L54.1877 40.8276L54.2474 40.8541L54.3086 40.8767L55 39ZM40.5 37H38.5V39H40.5V37ZM40.5 34.5L40.5 32.5H38.5V34.5H40.5ZM113.25 34.5H115.25V32.5H113.25V34.5ZM113.25 37V39H115.25V37H113.25ZM98.5 39L97.7239 37.1567L97.7057 37.1644L97.6877 37.1724L98.5 39ZM91.75 45L90.0069 44.0195L91.75 45ZM89.5 139H87.5V144.29L90.9997 140.323L89.5 139ZM153.25 66.75L151.763 65.4121L151.757 65.4194L151.75 65.4267L153.25 66.75ZM160.5 58L158.9 56.8L158.894 56.8086L158.887 56.8173L160.5 58ZM164.75 51L162.934 50.1619L162.918 50.196L162.904 50.2308L164.75 51ZM163.75 40.75L162.501 42.3117L162.551 42.3517L162.603 42.3885L163.75 40.75ZM156 38L156.283 36.0201L156.283 36.0201L156 38ZM142.75 37.25H140.75V39.25L142.75 39.25V37.25ZM142.75 34.5V32.5H140.75V34.5H142.75ZM198 34.5H200V32.5H198V34.5ZM198 37.25V39.25H200V37.25H198ZM187.25 39.5L187.962 41.369L188 41.3544L188.038 41.3383L187.25 39.5ZM176 46.75L177.317 48.2551V48.2551L176 46.75ZM162 61L163.494 62.3298L163.495 62.3287L162 61ZM123.5 104.25L122.006 102.92L120.951 104.106L121.865 105.403L123.5 104.25ZM178.5 182.25L176.865 183.403L176.871 183.41L176.876 183.417L178.5 182.25ZM188.5 195.75L186.917 196.973L186.934 196.995L186.952 197.016L188.5 195.75ZM196.25 204.5L194.836 205.914L194.862 205.94L194.889 205.966L196.25 204.5ZM202.5 209.25L201.542 211.006L201.634 211.056L201.731 211.096L202.5 209.25ZM209 210.5H211V208.5H209V210.5ZM209 213V215H211V213H209ZM185.5 212L185.252 213.985L185.259 213.985L185.5 212ZM172.25 208.5L171.39 210.306L172.25 208.5ZM162.75 201.75L161.296 203.123L161.316 203.144L161.336 203.164L162.75 201.75ZM153.75 190.5L152.111 191.646L152.114 191.651L153.75 190.5ZM106.75 123.25L108.389 122.104L106.925 120.009L105.244 121.934L106.75 123.25ZM89.5 143L87.9937 141.684L87.5 142.25V143H89.5ZM91.75 202.5L93.4932 201.519L91.75 202.5ZM98.5 208.5L97.6877 210.328L97.7057 210.336L97.7239 210.343L98.5 208.5ZM113.25 210.5H115.25V208.5H113.25V210.5ZM113.25 213V215H115.25V213H113.25ZM42.5 213V210.5H38.5V213H42.5ZM40.5 212.5H43.75L43.75 208.5H40.5L40.5 212.5ZM43.75 212.5C48.4324 212.5 52.4804 211.808 55.8123 210.328L54.1877 206.672C51.5196 207.858 48.0676 208.5 43.75 208.5L43.75 212.5ZM55.7761 210.343C59.2989 208.86 61.9989 206.581 63.7432 203.481L60.2569 201.519C59.0011 203.752 57.0344 205.473 54.2239 206.657L55.7761 210.343ZM63.7432 203.481C65.4555 200.436 66.25 196.741 66.25 192.5H62.25C62.25 196.259 61.5445 199.23 60.2568 201.519L63.7432 203.481ZM66.25 192.5L66.25 54H62.25L62.25 192.5H66.25ZM66.25 54C66.25 49.9154 65.4514 46.3651 63.715 43.471L60.285 45.529C61.5486 47.6349 62.25 50.4179 62.25 54H66.25ZM63.715 43.471C61.9444 40.52 59.2152 38.4216 55.6914 37.1233L54.3086 40.8767C57.1181 41.9118 59.0556 43.48 60.285 45.529L63.715 43.471ZM55.8123 37.1724C52.4804 35.6915 48.4324 35 43.75 35V39C48.0676 39 51.5196 39.6418 54.1877 40.8276L55.8123 37.1724ZM43.75 35H40.5V39H43.75V35ZM42.5 37V34.5H38.5V37H42.5ZM40.5 36.5L113.25 36.5V32.5L40.5 32.5L40.5 36.5ZM111.25 34.5V37H115.25V34.5H111.25ZM113.25 35H110V39H113.25V35ZM110 35C105.312 35 101.2 35.6933 97.7239 37.1567L99.2761 40.8433C102.134 39.64 105.688 39 110 39V35ZM97.6877 37.1724C94.3249 38.667 91.7337 40.9495 90.0069 44.0195L93.4932 45.9805C94.7663 43.7171 96.6751 41.9997 99.3123 40.8276L97.6877 37.1724ZM90.0069 44.0195C88.2945 47.0637 87.5 50.7591 87.5 55H91.5C91.5 51.2409 92.2055 48.2696 93.4932 45.9805L90.0069 44.0195ZM87.5 55L87.5 139H91.5L91.5 55H87.5ZM90.9997 140.323L154.75 68.0732L151.75 65.4267L88.0003 137.677L90.9997 140.323ZM154.737 68.0879C157.763 64.7248 160.227 61.7544 162.113 59.1827L158.887 56.8173C157.106 59.2456 154.737 62.1085 151.763 65.4121L154.737 68.0879ZM162.1 59.2C164.152 56.4635 165.674 53.9813 166.596 51.7692L162.904 50.2308C162.159 52.0187 160.848 54.2031 158.9 56.8L162.1 59.2ZM166.566 51.8381C167.623 49.5468 168.25 47.4104 168.25 45.5H164.25C164.25 46.5896 163.877 48.1198 162.934 50.1619L166.566 51.8381ZM168.25 45.5C168.25 42.8341 167.087 40.6448 164.897 39.1115L162.603 42.3885C163.746 43.1886 164.25 44.1659 164.25 45.5H168.25ZM164.999 39.1883C162.926 37.5298 159.93 36.5411 156.283 36.0201L155.717 39.9799C159.07 40.4589 161.24 41.3035 162.501 42.3117L164.999 39.1883ZM156.283 36.0201C152.655 35.5018 148.136 35.25 142.75 35.25V39.25C148.031 39.25 152.345 39.4982 155.717 39.9799L156.283 36.0201ZM144.75 37.25V34.5H140.75V37.25H144.75ZM142.75 36.5L198 36.5V32.5L142.75 32.5V36.5ZM196 34.5V37.25H200V34.5H196ZM198 35.25C194.052 35.25 190.201 36.0592 186.462 37.6617L188.038 41.3383C191.299 39.9408 194.615 39.25 198 39.25V35.25ZM186.538 37.631C182.745 39.0761 178.793 41.6488 174.683 45.2448L177.317 48.2551C181.207 44.8511 184.755 42.5905 187.962 41.369L186.538 37.631ZM174.683 45.2448C170.597 48.82 165.869 53.6369 160.505 59.6713L163.495 62.3287C168.798 56.3631 173.403 51.6799 177.317 48.2551L174.683 45.2448ZM160.506 59.6702L122.006 102.92L124.994 105.58L163.494 62.3298L160.506 59.6702ZM121.865 105.403L176.865 183.403L180.135 181.097L125.135 103.097L121.865 105.403ZM176.876 183.417C180.718 188.762 184.066 193.282 186.917 196.973L190.083 194.527C187.268 190.885 183.949 186.404 180.124 181.083L176.876 183.417ZM186.952 197.016C189.974 200.71 192.604 203.683 194.836 205.914L197.664 203.086C195.563 200.984 193.026 198.123 190.048 194.484L186.952 197.016ZM194.889 205.966C197.288 208.193 199.508 209.896 201.542 211.006L203.458 207.494C201.825 206.604 199.879 205.14 197.611 203.034L194.889 205.966ZM201.731 211.096C203.954 212.023 206.215 212.5 208.5 212.5V208.5C206.785 208.5 205.046 208.144 203.269 207.404L201.731 211.096ZM208.5 212.5H209V208.5H208.5V212.5ZM207 210.5V213H211V210.5H207ZM209 211H206.25V215H209V211ZM206.25 211C197.961 211 191.132 210.668 185.741 210.015L185.259 213.985C190.868 214.665 197.872 215 206.25 215V211ZM185.748 210.015C180.551 209.366 176.358 208.241 173.11 206.694L171.39 210.306C175.142 212.092 179.782 213.301 185.252 213.985L185.748 210.015ZM173.11 206.694C169.823 205.129 166.842 203.013 164.164 200.336L161.336 203.164C164.325 206.153 167.678 208.538 171.39 210.306L173.11 206.694ZM164.204 200.377C161.454 197.465 158.514 193.795 155.386 189.349L152.114 191.651C155.319 196.205 158.379 200.035 161.296 203.123L164.204 200.377ZM155.389 189.354L108.389 122.104L105.111 124.396L152.111 191.646L155.389 189.354ZM105.244 121.934L87.9937 141.684L91.0063 144.316L108.256 124.566L105.244 121.934ZM87.5 143V192.5H91.5V143H87.5ZM87.5 192.5C87.5 196.741 88.2945 200.436 90.0069 203.481L93.4932 201.519C92.2055 199.23 91.5 196.259 91.5 192.5H87.5ZM90.0069 203.481C91.7337 206.55 94.3249 208.833 97.6877 210.328L99.3123 206.672C96.6752 205.5 94.7663 203.783 93.4932 201.519L90.0069 203.481ZM97.7239 210.343C101.2 211.807 105.312 212.5 110 212.5V208.5C105.688 208.5 102.134 207.86 99.2761 206.657L97.7239 210.343ZM110 212.5H113.25V208.5H110V212.5ZM111.25 210.5V213H115.25V210.5H111.25ZM113.25 211H40.5V215H113.25V211ZM206.049 213H204.049V215H206.049V213ZM206.049 210.5V208.5H204.049V210.5H206.049ZM222.549 208.75L221.703 206.938L222.549 208.75ZM229.049 202.75L230.728 203.837L229.049 202.75ZM234.299 191L232.41 190.342L232.406 190.355L232.401 190.368L234.299 191ZM288.799 34.5V32.5H287.378L286.91 33.8422L288.799 34.5ZM301.549 34.5L303.415 33.7805L302.921 32.5H301.549V34.5ZM364.299 197.25L362.433 197.969L362.437 197.981L362.442 197.993L364.299 197.25ZM368.299 205.25L366.635 206.359L366.657 206.393L366.681 206.426L368.299 205.25ZM372.799 209.25L371.904 211.039L371.938 211.055L371.971 211.071L372.799 209.25ZM382.299 210.5H384.299V208.5H382.299V210.5ZM382.299 213V215H384.299V213H382.299ZM313.549 213H311.549V215H313.549V213ZM313.549 210.5V208.5H311.549V210.5H313.549ZM333.049 208.25L332.113 206.482L333.049 208.25ZM337.049 197.25L335.069 197.533L335.072 197.556L335.076 197.579L337.049 197.25ZM336.299 193.5L334.314 193.748L334.329 193.868L334.359 193.985L336.299 193.5ZM335.049 189.25L333.174 189.947L333.196 190.005L333.221 190.062L335.049 189.25ZM319.799 148.25L321.673 147.553L321.189 146.25H319.799V148.25ZM252.049 148.25V146.25H250.63L250.161 147.589L252.049 148.25ZM238.299 187.5L240.171 188.202L240.179 188.182L240.186 188.161L238.299 187.5ZM237.049 191.5L235.109 191.015L237.049 191.5ZM236.299 195.25L238.272 195.579L238.275 195.556L238.279 195.533L236.299 195.25ZM242.049 207.75L242.882 205.932L242.049 207.75ZM267.049 210.5H269.049V208.5H267.049V210.5ZM267.049 213V215H269.049V213H267.049ZM252.799 145.75L250.911 145.091L249.982 147.75H252.799V145.75ZM318.799 145.75V147.75H321.683L320.672 145.049L318.799 145.75ZM300.549 97L302.422 96.2988L302.417 96.2857L300.549 97ZM294.549 80.75L292.664 81.4188L294.549 80.75ZM289.299 66L287.389 66.5928L287.401 66.633L287.415 66.6727L289.299 66ZM285.049 52L286.966 51.4318L285.117 45.1897L283.143 51.3936L285.049 52ZM281.799 62.25L283.696 62.8824L283.701 62.8674L283.706 62.8523L281.799 62.25ZM278.799 71.25L276.901 70.6175L278.799 71.25ZM275.299 81L273.43 80.288L273.42 80.3135L273.411 80.3393L275.299 81ZM271.299 92.75L273.187 93.4091L273.192 93.3958L273.196 93.3824L271.299 92.75ZM208.049 213V210.5H204.049V213H208.049ZM206.049 212.5H213.299V208.5H206.049V212.5ZM213.299 212.5C217.166 212.5 220.558 211.886 223.395 210.562L221.703 206.938C219.54 207.947 216.765 208.5 213.299 208.5V212.5ZM223.395 210.562C226.304 209.205 228.736 206.915 230.728 203.837L227.37 201.663C225.695 204.252 223.794 205.962 221.703 206.938L223.395 210.562ZM230.728 203.837C232.689 200.806 234.502 196.714 236.196 191.632L232.401 190.368C230.762 195.286 229.075 199.028 227.37 201.663L230.728 203.837ZM236.188 191.658L290.688 35.1577L286.91 33.8422L232.41 190.342L236.188 191.658ZM288.799 36.5H301.549V32.5H288.799V36.5ZM299.683 35.2195L362.433 197.969L366.165 196.531L303.415 33.7805L299.683 35.2195ZM362.442 197.993C363.804 201.398 365.197 204.203 366.635 206.359L369.963 204.141C368.734 202.297 367.46 199.768 366.156 196.507L362.442 197.993ZM366.681 206.426C368.163 208.463 369.896 210.034 371.904 211.039L373.693 207.461C372.369 206.799 371.102 205.703 369.916 204.074L366.681 206.426ZM371.971 211.071C374.103 212.04 376.475 212.5 379.049 212.5V208.5C376.956 208.5 375.162 208.127 373.626 207.429L371.971 211.071ZM379.049 212.5H382.299V208.5H379.049V212.5ZM380.299 210.5V213H384.299V210.5H380.299ZM382.299 211H313.549V215H382.299V211ZM315.549 213V210.5H311.549V213H315.549ZM313.549 212.5H319.299V208.5H313.549V212.5ZM319.299 212.5C325.699 212.5 330.698 211.757 333.985 210.018L332.113 206.482C329.733 207.743 325.565 208.5 319.299 208.5V212.5ZM333.985 210.018C337.614 208.096 339.299 204.65 339.299 200.25H335.299C335.299 203.517 334.151 205.404 332.113 206.482L333.985 210.018ZM339.299 200.25C339.299 199.138 339.206 198.028 339.022 196.921L335.076 197.579C335.225 198.472 335.299 199.362 335.299 200.25H339.299ZM339.029 196.967C338.851 195.722 338.586 194.404 338.239 193.015L334.359 193.985C334.678 195.262 334.913 196.444 335.069 197.533L339.029 196.967ZM338.283 193.252C338.088 191.686 337.606 190.079 336.876 188.438L333.221 190.062C333.825 191.421 334.177 192.647 334.314 193.748L338.283 193.252ZM336.923 188.553L321.673 147.553L317.924 148.947L333.174 189.947L336.923 188.553ZM319.799 146.25L252.049 146.25V150.25L319.799 150.25V146.25ZM250.161 147.589L236.411 186.839L240.186 188.161L253.936 148.911L250.161 147.589ZM236.426 186.798C235.9 188.2 235.461 189.605 235.109 191.015L238.989 191.985C239.303 190.728 239.697 189.467 240.171 188.202L236.426 186.798ZM235.109 191.015C234.761 192.404 234.497 193.722 234.319 194.967L238.279 195.533C238.434 194.444 238.67 193.262 238.989 191.985L235.109 191.015ZM234.326 194.921C234.142 196.028 234.049 197.138 234.049 198.25H238.049C238.049 197.362 238.123 196.472 238.272 195.579L234.326 194.921ZM234.049 198.25C234.049 200.801 234.619 203.106 235.858 205.068C237.099 207.033 238.926 208.519 241.216 209.568L242.882 205.932C241.172 205.148 239.999 204.134 239.24 202.932C238.479 201.728 238.049 200.199 238.049 198.25H234.049ZM241.216 209.568C245.628 211.59 252.41 212.5 261.299 212.5V208.5C252.521 208.5 246.47 207.576 242.882 205.932L241.216 209.568ZM261.299 212.5H267.049V208.5H261.299V212.5ZM265.049 210.5V213H269.049V210.5H265.049ZM267.049 211H206.049V215H267.049V211ZM252.799 147.75L318.799 147.75V143.75L252.799 143.75V147.75ZM320.672 145.049L302.422 96.2988L298.676 97.7012L316.926 146.451L320.672 145.049ZM302.417 96.2857C300.255 90.6326 298.261 85.2311 296.434 80.0812L292.664 81.4188C294.503 86.6022 296.509 92.0341 298.681 97.7143L302.417 96.2857ZM296.434 80.0812C294.6 74.9134 292.849 69.9954 291.182 65.3273L287.415 66.6727C289.082 71.3379 290.831 76.2533 292.664 81.4188L296.434 80.0812ZM291.209 65.4072C289.711 60.5814 288.297 55.923 286.966 51.4318L283.131 52.5682C284.467 57.077 285.886 61.7519 287.389 66.5928L291.209 65.4072ZM283.143 51.3936C281.976 55.0614 280.892 58.4795 279.892 61.6477L283.706 62.8523C284.706 59.6872 285.788 56.2719 286.955 52.6064L283.143 51.3936ZM279.901 61.6175C278.901 64.6175 277.901 67.6175 276.901 70.6175L280.696 71.8824C281.696 68.8824 282.696 65.8824 283.696 62.8824L279.901 61.6175ZM276.901 70.6175C275.912 73.5865 274.755 76.8097 273.43 80.288L277.168 81.712C278.509 78.1903 279.686 74.9135 280.696 71.8824L276.901 70.6175ZM273.411 80.3393C272.24 83.6846 270.904 87.6111 269.401 92.1175L273.196 93.3824C274.694 88.8889 276.024 84.9821 277.187 81.6607L273.411 80.3393ZM269.411 92.0909L250.911 145.091L254.687 146.409L273.187 93.4091L269.411 92.0909ZM407.426 213H405.426V215H407.426V213ZM407.426 210.5V208.5H405.426V210.5H407.426ZM421.926 208.5L421.15 206.657L421.132 206.664L421.113 206.672L421.926 208.5ZM428.926 202.5L427.183 201.519H427.183L428.926 202.5ZM431.176 37H433.176V35H431.176V37ZM379.676 50.25L381.477 51.1195L379.676 50.25ZM375.426 70L377.422 70.121L377.422 70.1198L375.426 70ZM374.926 78.25V80.25H376.808L376.922 78.371L374.926 78.25ZM372.426 78.25L370.427 78.1815L370.356 80.25H372.426V78.25ZM373.926 34.5V32.5H371.993L371.927 34.4315L373.926 34.5ZM514.176 34.5L516.175 34.4315L516.108 32.5H514.176V34.5ZM515.676 78.25V80.25L517.746 80.25L517.675 78.1815L515.676 78.25ZM513.176 78.25L511.179 78.371L511.293 80.25H513.176V78.25ZM512.676 70L510.679 70.1198L510.679 70.121L512.676 70ZM497.426 40L496.661 41.848L496.672 41.8526L496.683 41.8569L497.426 40ZM456.426 37V35H454.426V37H456.426ZM458.676 202.5L460.419 201.519L458.676 202.5ZM465.426 208.5L464.613 210.328L464.632 210.336L464.65 210.343L465.426 208.5ZM480.176 210.5H482.176V208.5H480.176V210.5ZM480.176 213V215H482.176V213H480.176ZM409.426 213V210.5H405.426V213H409.426ZM407.426 212.5H410.676V208.5H407.426V212.5ZM410.676 212.5C415.358 212.5 419.406 211.808 422.738 210.328L421.113 206.672C418.445 207.858 414.993 208.5 410.676 208.5V212.5ZM422.702 210.343C426.225 208.86 428.925 206.581 430.669 203.481L427.183 201.519C425.927 203.752 423.96 205.473 421.15 206.657L422.702 210.343ZM430.669 203.481C432.381 200.436 433.176 196.741 433.176 192.5H429.176C429.176 196.259 428.47 199.23 427.183 201.519L430.669 203.481ZM433.176 192.5L433.176 37H429.176L429.176 192.5H433.176ZM431.176 35L410.676 35V39H431.176V35ZM410.676 35C402.212 35 395.262 36.0113 389.933 38.143L391.419 41.8569C396.089 39.9887 402.473 39 410.676 39V35ZM389.933 38.143C384.471 40.3278 380.426 44.0957 377.875 49.3805L381.477 51.1195C383.592 46.7376 386.881 43.6722 391.419 41.8569L389.933 38.143ZM377.875 49.3805C375.383 54.5422 373.937 61.4156 373.429 69.8802L377.422 70.1198C377.914 61.9177 379.302 55.6245 381.477 51.1195L377.875 49.3805ZM373.429 69.879L372.929 78.129L376.922 78.371L377.422 70.121L373.429 69.879ZM374.926 76.25H372.426V80.25H374.926V76.25ZM374.425 78.3185L375.925 34.5685L371.927 34.4315L370.427 78.1815L374.425 78.3185ZM373.926 36.5L514.176 36.5V32.5L373.926 32.5V36.5ZM512.177 34.5685L513.677 78.3185L517.675 78.1815L516.175 34.4315L512.177 34.5685ZM515.676 76.25H513.176V80.25H515.676V76.25ZM515.172 78.129L514.672 69.879L510.679 70.121L511.179 78.371L515.172 78.129ZM514.672 69.8802C514.164 61.4156 512.719 54.5422 510.227 49.3805L506.625 51.1195C508.799 55.6245 510.187 61.9177 510.679 70.1198L514.672 69.8802ZM510.227 49.3805C507.676 44.0957 503.631 40.3278 498.169 38.143L496.683 41.8569C501.221 43.6722 504.509 46.7376 506.625 51.1195L510.227 49.3805ZM498.19 38.152C493.01 36.0083 486.044 35 477.426 35V39C485.807 39 492.175 39.9916 496.661 41.848L498.19 38.152ZM477.426 35H456.426V39H477.426V35ZM454.426 37L454.426 192.5H458.426L458.426 37H454.426ZM454.426 192.5C454.426 196.741 455.22 200.436 456.933 203.481L460.419 201.519C459.131 199.23 458.426 196.259 458.426 192.5H454.426ZM456.933 203.481C458.659 206.55 461.251 208.833 464.613 210.328L466.238 206.672C463.601 205.5 461.692 203.783 460.419 201.519L456.933 203.481ZM464.65 210.343C468.125 211.807 472.238 212.5 476.926 212.5V208.5C472.614 208.5 469.06 207.86 466.202 206.657L464.65 210.343ZM476.926 212.5H480.176V208.5H476.926V212.5ZM478.176 210.5V213H482.176V210.5H478.176ZM480.176 211L407.426 211V215L480.176 215V211ZM530.246 213H528.246V215H530.246V213ZM530.246 210.5V208.5H528.246V210.5H530.246ZM544.746 208.5L543.97 206.657L543.952 206.664L543.934 206.672L544.746 208.5ZM551.746 202.5L553.489 203.481L551.746 202.5ZM551.746 44.5L553.461 43.471L551.746 44.5ZM544.746 39L543.934 40.8276L543.993 40.8541L544.055 40.8767L544.746 39ZM530.246 37H528.246V39H530.246V37ZM530.246 34.5V32.5H528.246V34.5H530.246ZM655.996 34.5L657.995 34.4315L657.929 32.5H655.996V34.5ZM657.496 78.25V80.25H659.566L659.495 78.1815L657.496 78.25ZM654.996 78.25L653 78.371L653.114 80.25H654.996V78.25ZM654.496 70L652.5 70.1198L652.5 70.121L654.496 70ZM639.246 40L638.481 41.848L638.492 41.8526L638.503 41.8569L639.246 40ZM579.246 37V35H577.246V37H579.246ZM579.246 118.25H577.246V120.25H579.246V118.25ZM641.996 118.25H643.996V116.25H641.996V118.25ZM641.996 120.75V122.75H643.996V120.75H641.996ZM579.246 120.75V118.75H577.246V120.75H579.246ZM579.246 210.5H577.246V212.5H579.246V210.5ZM646.996 207.5L646.294 205.627L646.996 207.5ZM658.496 197.25L656.72 196.331L656.707 196.356L656.695 196.381L658.496 197.25ZM662.996 177.5L661 177.379L661 177.38L662.996 177.5ZM663.496 169.25V167.25H661.614L661.5 169.129L663.496 169.25ZM665.996 169.25L667.995 169.33L668.078 167.25H665.996V169.25ZM664.246 213V215H666.168L666.245 213.08L664.246 213ZM532.246 213V210.5H528.246V213H532.246ZM530.246 212.5H533.496V208.5H530.246V212.5ZM533.496 212.5C538.178 212.5 542.227 211.808 545.558 210.328L543.934 206.672C541.266 207.858 537.814 208.5 533.496 208.5V212.5ZM545.522 210.343C549.045 208.86 551.745 206.581 553.489 203.481L550.003 201.519C548.747 203.752 546.781 205.473 543.97 206.657L545.522 210.343ZM553.489 203.481C555.202 200.436 555.996 196.741 555.996 192.5H551.996C551.996 196.259 551.291 199.23 550.003 201.519L553.489 203.481ZM555.996 192.5V54H551.996V192.5H555.996ZM555.996 54C555.996 49.9154 555.198 46.3651 553.461 43.471L550.031 45.529C551.295 47.6349 551.996 50.4179 551.996 54H555.996ZM553.461 43.471C551.69 40.52 548.961 38.4216 545.438 37.1233L544.055 40.8767C546.864 41.9118 548.802 43.48 550.031 45.529L553.461 43.471ZM545.558 37.1724C542.227 35.6915 538.178 35 533.496 35V39C537.814 39 541.266 39.6418 543.934 40.8276L545.558 37.1724ZM533.496 35H530.246V39H533.496V35ZM532.246 37V34.5H528.246V37H532.246ZM530.246 36.5L655.996 36.5V32.5L530.246 32.5V36.5ZM653.997 34.5685L655.497 78.3185L659.495 78.1815L657.995 34.4315L653.997 34.5685ZM657.496 76.25H654.996V80.25H657.496V76.25ZM656.992 78.129L656.492 69.879L652.5 70.121L653 78.371L656.992 78.129ZM656.492 69.8802C655.985 61.4156 654.539 54.5422 652.047 49.3805L648.445 51.1195C650.62 55.6245 652.008 61.9177 652.5 70.1198L656.492 69.8802ZM652.047 49.3805C649.496 44.0957 645.451 40.3278 639.989 38.143L638.503 41.8569C643.041 43.6722 646.33 46.7376 648.445 51.1195L652.047 49.3805ZM640.011 38.152C634.83 36.0083 627.865 35 619.246 35V39C627.628 39 633.995 39.9916 638.481 41.848L640.011 38.152ZM619.246 35L579.246 35V39L619.246 39V35ZM577.246 37V118.25H581.246V37H577.246ZM579.246 120.25L641.996 120.25V116.25L579.246 116.25V120.25ZM639.996 118.25V120.75H643.996V118.25H639.996ZM641.996 118.75L579.246 118.75V122.75L641.996 122.75V118.75ZM577.246 120.75V210.5H581.246V120.75H577.246ZM579.246 212.5H625.496V208.5H579.246V212.5ZM625.496 212.5C634.613 212.5 642.049 211.491 647.698 209.373L646.294 205.627C641.277 207.509 634.379 208.5 625.496 208.5V212.5ZM647.698 209.373C653.481 207.204 657.726 203.446 660.297 198.119L656.695 196.381C654.6 200.72 651.178 203.796 646.294 205.627L647.698 209.373ZM660.273 198.169C662.951 192.991 664.484 186.098 664.992 177.62L661 177.38C660.508 185.569 659.041 191.842 656.72 196.331L660.273 198.169ZM664.992 177.621L665.492 169.371L661.5 169.129L661 177.379L664.992 177.621ZM663.496 171.25H665.996V167.25H663.496V171.25ZM663.998 169.17L662.248 212.92L666.245 213.08L667.995 169.33L663.998 169.17ZM664.246 211L530.246 211V215L664.246 215V211ZM40.5 433H38.5V435H40.5V433ZM40.5 430.5V428.5H38.5V430.5H40.5ZM55 428.5L54.2239 426.657L54.2057 426.664L54.1877 426.672L55 428.5ZM62 422.5L63.7432 423.481L62 422.5ZM62 264.5L63.715 263.471H63.715L62 264.5ZM55 259L54.1877 260.828L54.2474 260.854L54.3086 260.877L55 259ZM40.5 257H38.5V259H40.5V257ZM40.5 254.5V252.5H38.5V254.5H40.5ZM113.25 254.5H115.25V252.5H113.25V254.5ZM113.25 257V259H115.25V257H113.25ZM98.5 259L97.7239 257.157L97.7057 257.164L97.6877 257.172L98.5 259ZM91.75 265L90.0069 264.019L91.75 265ZM89.5 359H87.5V364.29L90.9997 360.323L89.5 359ZM153.25 286.75L151.763 285.412L151.757 285.419L151.75 285.427L153.25 286.75ZM160.5 278L158.9 276.8L158.894 276.809L158.887 276.817L160.5 278ZM164.75 271L162.934 270.162L162.918 270.196L162.904 270.231L164.75 271ZM163.75 260.75L162.501 262.312L162.551 262.352L162.603 262.388L163.75 260.75ZM156 258L156.283 256.02H156.283L156 258ZM142.75 257.25H140.75V259.25H142.75V257.25ZM142.75 254.5V252.5H140.75V254.5H142.75ZM198 254.5H200V252.5H198V254.5ZM198 257.25V259.25H200V257.25H198ZM187.25 259.5L187.962 261.369L188 261.354L188.038 261.338L187.25 259.5ZM176 266.75L177.317 268.255L176 266.75ZM162 281L163.494 282.33L163.495 282.329L162 281ZM123.5 324.25L122.006 322.92L120.951 324.106L121.865 325.403L123.5 324.25ZM178.5 402.25L176.865 403.403L176.871 403.41L176.876 403.417L178.5 402.25ZM188.5 415.75L186.917 416.973L186.934 416.995L186.952 417.016L188.5 415.75ZM196.25 424.5L194.836 425.914L194.862 425.94L194.889 425.966L196.25 424.5ZM202.5 429.25L201.542 431.006L201.634 431.056L201.731 431.096L202.5 429.25ZM209 430.5H211V428.5H209V430.5ZM209 433V435H211V433H209ZM185.5 432L185.252 433.985L185.259 433.985L185.5 432ZM172.25 428.5L171.39 430.306L172.25 428.5ZM162.75 421.75L161.296 423.123L161.316 423.144L161.336 423.164L162.75 421.75ZM153.75 410.5L152.111 411.646L152.114 411.651L153.75 410.5ZM106.75 343.25L108.389 342.104L106.925 340.009L105.244 341.934L106.75 343.25ZM89.5 363L87.9937 361.684L87.5 362.25V363H89.5ZM91.75 422.5L93.4932 421.519L91.75 422.5ZM98.5 428.5L97.6877 430.328L97.7057 430.336L97.7239 430.343L98.5 428.5ZM113.25 430.5H115.25V428.5H113.25V430.5ZM113.25 433V435H115.25V433H113.25ZM42.5 433V430.5H38.5V433H42.5ZM40.5 432.5H43.75V428.5H40.5V432.5ZM43.75 432.5C48.4324 432.5 52.4804 431.808 55.8123 430.328L54.1877 426.672C51.5196 427.858 48.0676 428.5 43.75 428.5V432.5ZM55.7761 430.343C59.2989 428.86 61.9989 426.581 63.7432 423.481L60.2569 421.519C59.0011 423.752 57.0344 425.473 54.2239 426.657L55.7761 430.343ZM63.7432 423.481C65.4555 420.436 66.25 416.741 66.25 412.5H62.25C62.25 416.259 61.5445 419.23 60.2568 421.519L63.7432 423.481ZM66.25 412.5L66.25 274H62.25L62.25 412.5H66.25ZM66.25 274C66.25 269.915 65.4514 266.365 63.715 263.471L60.285 265.529C61.5486 267.635 62.25 270.418 62.25 274H66.25ZM63.715 263.471C61.9444 260.52 59.2152 258.422 55.6914 257.123L54.3086 260.877C57.1181 261.912 59.0556 263.48 60.285 265.529L63.715 263.471ZM55.8123 257.172C52.4804 255.692 48.4324 255 43.75 255V259C48.0676 259 51.5196 259.642 54.1877 260.828L55.8123 257.172ZM43.75 255H40.5V259H43.75V255ZM42.5 257V254.5H38.5V257H42.5ZM40.5 256.5H113.25V252.5H40.5V256.5ZM111.25 254.5V257H115.25V254.5H111.25ZM113.25 255H110V259H113.25V255ZM110 255C105.312 255 101.2 255.693 97.7239 257.157L99.2761 260.843C102.134 259.64 105.688 259 110 259V255ZM97.6877 257.172C94.3249 258.667 91.7337 260.95 90.0069 264.019L93.4932 265.98C94.7663 263.717 96.6751 262 99.3123 260.828L97.6877 257.172ZM90.0069 264.019C88.2945 267.064 87.5 270.759 87.5 275H91.5C91.5 271.241 92.2055 268.27 93.4932 265.98L90.0069 264.019ZM87.5 275L87.5 359H91.5L91.5 275H87.5ZM90.9997 360.323L154.75 288.073L151.75 285.427L88.0003 357.677L90.9997 360.323ZM154.737 288.088C157.763 284.725 160.227 281.754 162.113 279.183L158.887 276.817C157.106 279.246 154.737 282.109 151.763 285.412L154.737 288.088ZM162.1 279.2C164.152 276.464 165.674 273.981 166.596 271.769L162.904 270.231C162.159 272.019 160.848 274.203 158.9 276.8L162.1 279.2ZM166.566 271.838C167.623 269.547 168.25 267.41 168.25 265.5H164.25C164.25 266.59 163.877 268.12 162.934 270.162L166.566 271.838ZM168.25 265.5C168.25 262.834 167.087 260.645 164.897 259.112L162.603 262.388C163.746 263.189 164.25 264.166 164.25 265.5H168.25ZM164.999 259.188C162.926 257.53 159.93 256.541 156.283 256.02L155.717 259.98C159.07 260.459 161.24 261.303 162.501 262.312L164.999 259.188ZM156.283 256.02C152.655 255.502 148.136 255.25 142.75 255.25V259.25C148.031 259.25 152.345 259.498 155.717 259.98L156.283 256.02ZM144.75 257.25V254.5H140.75V257.25H144.75ZM142.75 256.5H198V252.5H142.75V256.5ZM196 254.5V257.25H200V254.5H196ZM198 255.25C194.052 255.25 190.201 256.059 186.462 257.662L188.038 261.338C191.299 259.941 194.615 259.25 198 259.25V255.25ZM186.538 257.631C182.745 259.076 178.793 261.649 174.683 265.245L177.317 268.255C181.207 264.851 184.755 262.591 187.962 261.369L186.538 257.631ZM174.683 265.245C170.597 268.82 165.869 273.637 160.505 279.671L163.495 282.329C168.798 276.363 173.403 271.68 177.317 268.255L174.683 265.245ZM160.506 279.67L122.006 322.92L124.994 325.58L163.494 282.33L160.506 279.67ZM121.865 325.403L176.865 403.403L180.135 401.097L125.135 323.097L121.865 325.403ZM176.876 403.417C180.718 408.762 184.066 413.282 186.917 416.973L190.083 414.527C187.268 410.885 183.949 406.404 180.124 401.083L176.876 403.417ZM186.952 417.016C189.974 420.71 192.604 423.683 194.836 425.914L197.664 423.086C195.563 420.984 193.026 418.123 190.048 414.484L186.952 417.016ZM194.889 425.966C197.288 428.193 199.508 429.896 201.542 431.006L203.458 427.494C201.825 426.604 199.879 425.14 197.611 423.034L194.889 425.966ZM201.731 431.096C203.954 432.023 206.215 432.5 208.5 432.5V428.5C206.785 428.5 205.046 428.144 203.269 427.404L201.731 431.096ZM208.5 432.5H209V428.5H208.5V432.5ZM207 430.5V433L211 433V430.5L207 430.5ZM209 431L206.25 431V435L209 435V431ZM206.25 431C197.961 431 191.132 430.668 185.741 430.015L185.259 433.985C190.868 434.665 197.872 435 206.25 435V431ZM185.748 430.015C180.551 429.366 176.358 428.241 173.11 426.694L171.39 430.306C175.142 432.092 179.782 433.301 185.252 433.985L185.748 430.015ZM173.11 426.694C169.823 425.129 166.842 423.013 164.164 420.336L161.336 423.164C164.325 426.153 167.678 428.538 171.39 430.306L173.11 426.694ZM164.204 420.377C161.454 417.465 158.514 413.795 155.386 409.349L152.114 411.651C155.319 416.205 158.379 420.035 161.296 423.123L164.204 420.377ZM155.389 409.354L108.389 342.104L105.111 344.396L152.111 411.646L155.389 409.354ZM105.244 341.934L87.9937 361.684L91.0063 364.316L108.256 344.566L105.244 341.934ZM87.5 363V412.5H91.5V363H87.5ZM87.5 412.5C87.5 416.741 88.2945 420.436 90.0069 423.481L93.4932 421.519C92.2055 419.23 91.5 416.259 91.5 412.5H87.5ZM90.0069 423.481C91.7337 426.55 94.3249 428.833 97.6877 430.328L99.3123 426.672C96.6752 425.5 94.7663 423.783 93.4932 421.519L90.0069 423.481ZM97.7239 430.343C101.2 431.807 105.312 432.5 110 432.5V428.5C105.688 428.5 102.134 427.86 99.2761 426.657L97.7239 430.343ZM110 432.5H113.25V428.5H110V432.5ZM111.25 430.5V433H115.25V430.5H111.25ZM113.25 431H40.5V435H113.25V431ZM262.549 430L261.789 431.85L261.809 431.858L261.829 431.866L262.549 430ZM241.049 411.75L239.334 412.779L241.049 411.75ZM231.299 264.5L229.584 265.529L231.299 264.5ZM224.299 259L223.487 260.828L223.546 260.854L223.607 260.877L224.299 259ZM209.799 257H207.799V259H209.799V257ZM209.799 254.5V252.5H207.799V254.5H209.799ZM282.549 254.5H284.549V252.5H282.549V254.5ZM282.549 257V259H284.549V257H282.549ZM267.799 259L267.023 257.157L267.005 257.164L266.987 257.172L267.799 259ZM261.049 265L262.764 266.029L262.778 266.005L262.792 265.98L261.049 265ZM264.049 411.75L262.236 412.596L262.244 412.612L262.252 412.628L264.049 411.75ZM279.049 427.5L278.193 429.307L278.212 429.317L278.232 429.326L279.049 427.5ZM329.799 425.75L330.679 427.546L329.799 425.75ZM348.549 408.5L346.824 407.488L346.817 407.499L348.549 408.5ZM353.049 264.5L351.334 265.529L353.049 264.5ZM346.049 259L345.237 260.828L345.296 260.854L345.357 260.877L346.049 259ZM331.549 257H329.549V259H331.549V257ZM331.549 254.5V252.5H329.549V254.5H331.549ZM381.549 254.5H383.549V252.5H381.549V254.5ZM381.549 257V259H383.549V257H381.549ZM366.799 259L366.023 257.157L366.005 257.164L365.987 257.172L366.799 259ZM360.049 265L361.792 265.98L360.049 265ZM350.799 410.5L352.526 411.508L350.799 410.5ZM330.049 429L329.194 427.192L329.188 427.195L329.181 427.198L330.049 429ZM296.549 433.5C283.56 433.5 272.483 431.69 263.269 428.134L261.829 431.866C271.615 435.643 283.205 437.5 296.549 437.5V433.5ZM263.309 428.15C254.358 424.474 247.533 418.67 242.764 410.721L239.334 412.779C244.564 421.497 252.073 427.86 261.789 431.85L263.309 428.15ZM242.764 410.721C238.009 402.797 235.549 392.272 235.549 379H231.549C231.549 392.728 234.088 404.037 239.334 412.779L242.764 410.721ZM235.549 379V274H231.549V379H235.549ZM235.549 274C235.549 269.915 234.75 266.365 233.014 263.471L229.584 265.529C230.847 267.635 231.549 270.418 231.549 274H235.549ZM233.014 263.471C231.243 260.52 228.514 258.422 224.99 257.123L223.607 260.877C226.417 261.912 228.354 263.48 229.584 265.529L233.014 263.471ZM225.111 257.172C221.779 255.692 217.731 255 213.049 255V259C217.366 259 220.818 259.642 223.487 260.828L225.111 257.172ZM213.049 255H209.799V259H213.049V255ZM211.799 257V254.5H207.799V257H211.799ZM209.799 256.5H282.549V252.5H209.799V256.5ZM280.549 254.5V257H284.549V254.5H280.549ZM282.549 255H279.299V259H282.549V255ZM279.299 255C274.611 255 270.498 255.693 267.023 257.157L268.575 260.843C271.433 259.64 274.987 259 279.299 259V255ZM266.987 257.172C263.624 258.667 261.033 260.95 259.306 264.019L262.792 265.98C264.065 263.717 265.974 262 268.611 260.828L266.987 257.172ZM259.334 263.971C257.59 266.877 256.799 270.517 256.799 274.75H260.799C260.799 270.983 261.507 268.123 262.764 266.029L259.334 263.971ZM256.799 274.75V380.5H260.799V274.75H256.799ZM256.799 380.5C256.799 393.967 258.56 404.718 262.236 412.596L265.861 410.904C262.538 403.782 260.799 393.699 260.799 380.5H256.799ZM262.252 412.628C266.078 420.455 271.375 426.078 278.193 429.307L279.905 425.693C274.056 422.922 269.353 418.045 265.846 410.872L262.252 412.628ZM278.232 429.326C284.859 432.29 292.31 433.75 300.549 433.75V429.75C292.787 429.75 285.906 428.376 279.866 425.674L278.232 429.326ZM300.549 433.75C312.114 433.75 322.179 431.709 330.679 427.546L328.919 423.954C321.085 427.791 311.651 429.75 300.549 429.75V433.75ZM330.679 427.546C339.183 423.381 345.738 417.362 350.281 409.501L346.817 407.499C342.693 414.638 336.748 420.119 328.919 423.954L330.679 427.546ZM350.274 409.512C354.981 401.492 357.299 392.131 357.299 381.5H353.299C353.299 391.536 351.116 400.175 346.824 407.488L350.274 409.512ZM357.299 381.5V274H353.299V381.5H357.299ZM357.299 274C357.299 269.915 356.5 266.365 354.764 263.471L351.334 265.529C352.597 267.635 353.299 270.418 353.299 274H357.299ZM354.764 263.471C352.993 260.52 350.264 258.422 346.74 257.123L345.357 260.877C348.167 261.912 350.104 263.48 351.334 265.529L354.764 263.471ZM346.861 257.172C343.529 255.692 339.481 255 334.799 255V259C339.116 259 342.568 259.642 345.237 260.828L346.861 257.172ZM334.799 255H331.549V259H334.799V255ZM333.549 257V254.5H329.549V257H333.549ZM331.549 256.5H381.549V252.5H331.549V256.5ZM379.549 254.5V257H383.549V254.5H379.549ZM381.549 255H378.299V259H381.549V255ZM378.299 255C373.611 255 369.498 255.693 366.023 257.157L367.575 260.843C370.433 259.64 373.987 259 378.299 259V255ZM365.987 257.172C362.624 258.667 360.033 260.95 358.306 264.019L361.792 265.98C363.065 263.717 364.974 262 367.611 260.828L365.987 257.172ZM358.306 264.019C356.593 267.064 355.799 270.759 355.799 275H359.799C359.799 271.241 360.504 268.27 361.792 265.98L358.306 264.019ZM355.799 275V382H359.799V275H355.799ZM355.799 382C355.799 392.713 353.529 401.851 349.071 409.492L352.526 411.508C357.402 403.149 359.799 393.287 359.799 382H355.799ZM349.071 409.492C344.627 417.11 338.032 423.014 329.194 427.192L330.904 430.808C340.399 426.319 347.637 419.89 352.526 411.508L349.071 409.492ZM329.181 427.198C320.527 431.365 309.678 433.5 296.549 433.5V437.5C310.087 437.5 321.571 435.302 330.916 430.802L329.181 427.198ZM394.748 433H392.748V435H394.748V433ZM394.748 430.5V428.5H392.748V430.5H394.748ZM409.248 428.5L408.472 426.657L408.454 426.664L408.436 426.672L409.248 428.5ZM416.248 422.5L417.991 423.481L416.248 422.5ZM416.248 264.5L417.963 263.471L416.248 264.5ZM409.248 259L408.436 260.828L408.495 260.854L408.557 260.877L409.248 259ZM394.748 257H392.748V259H394.748V257ZM394.748 254.5V252.5H392.748V254.5H394.748ZM467.498 254.5H469.498V252.5H467.498V254.5ZM467.498 257V259H469.498V257H467.498ZM452.748 259L451.972 257.157L451.954 257.164L451.936 257.172L452.748 259ZM445.998 265L444.255 264.019L445.998 265ZM443.748 430.5H441.748V432.5H443.748V430.5ZM510.998 426.75L511.869 428.55L511.881 428.545L511.892 428.539L510.998 426.75ZM527.498 387.5L529.494 387.623L529.494 387.621L527.498 387.5ZM527.998 379.25V377.25H526.116L526.002 379.129L527.998 379.25ZM530.498 379.25L532.497 379.315L532.564 377.25H530.498V379.25ZM528.748 433V435H530.684L530.747 433.065L528.748 433ZM396.748 433V430.5H392.748V433H396.748ZM394.748 432.5H397.998V428.5H394.748V432.5ZM397.998 432.5C402.68 432.5 406.728 431.808 410.06 430.328L408.436 426.672C405.768 427.858 402.316 428.5 397.998 428.5V432.5ZM410.024 430.343C413.547 428.86 416.247 426.581 417.991 423.481L414.505 421.519C413.249 423.752 411.282 425.473 408.472 426.657L410.024 430.343ZM417.991 423.481C419.704 420.436 420.498 416.741 420.498 412.5H416.498C416.498 416.259 415.793 419.23 414.505 421.519L417.991 423.481ZM420.498 412.5V274H416.498V412.5H420.498ZM420.498 274C420.498 269.915 419.699 266.365 417.963 263.471L414.533 265.529C415.797 267.635 416.498 270.418 416.498 274H420.498ZM417.963 263.471C416.192 260.52 413.463 258.422 409.939 257.123L408.557 260.877C411.366 261.912 413.304 263.48 414.533 265.529L417.963 263.471ZM410.06 257.172C406.728 255.692 402.68 255 397.998 255V259C402.316 259 405.768 259.642 408.436 260.828L410.06 257.172ZM397.998 255H394.748V259H397.998V255ZM396.748 257V254.5H392.748V257H396.748ZM394.748 256.5H467.498V252.5H394.748V256.5ZM465.498 254.5V257H469.498V254.5H465.498ZM467.498 255H464.248V259H467.498V255ZM464.248 255C459.56 255 455.448 255.693 451.972 257.157L453.524 260.843C456.382 259.64 459.936 259 464.248 259V255ZM451.936 257.172C448.573 258.667 445.982 260.95 444.255 264.019L447.741 265.98C449.014 263.717 450.923 262 453.56 260.828L451.936 257.172ZM444.255 264.019C442.543 267.064 441.748 270.759 441.748 275H445.748C445.748 271.241 446.454 268.27 447.741 265.98L444.255 264.019ZM441.748 275V430.5H445.748V275H441.748ZM443.748 432.5H489.998V428.5H443.748V432.5ZM489.998 432.5C498.986 432.5 506.324 431.234 511.869 428.55L510.127 424.95C505.339 427.266 498.677 428.5 489.998 428.5V432.5ZM511.892 428.539C517.729 425.62 521.955 420.707 524.608 413.984L520.888 412.516C518.541 418.46 514.933 422.546 510.104 424.961L511.892 428.539ZM524.608 413.984C527.217 407.375 528.821 398.557 529.494 387.623L525.502 387.377C524.841 398.11 523.279 406.458 520.888 412.516L524.608 413.984ZM529.494 387.621L529.994 379.371L526.002 379.129L525.502 387.379L529.494 387.621ZM527.998 381.25H530.498V377.25H527.998V381.25ZM528.499 379.185L526.749 432.935L530.747 433.065L532.497 379.315L528.499 379.185ZM528.748 431H394.748V435H528.748V431ZM550.51 433H548.51V435H550.51V433ZM550.51 430.5V428.5H548.51V430.5H550.51ZM565.01 428.5L564.234 426.657L564.216 426.664L564.198 426.672L565.01 428.5ZM572.01 422.5L573.753 423.481L572.01 422.5ZM572.01 264.5L573.725 263.471L572.01 264.5ZM565.01 259L564.198 260.828L564.257 260.854L564.318 260.877L565.01 259ZM550.51 257H548.51V259H550.51V257ZM550.51 254.5V252.5H548.51V254.5H550.51ZM623.26 254.5H625.26V252.5H623.26V254.5ZM623.26 257V259H625.26V257H623.26ZM608.51 259L607.734 257.157L607.716 257.164L607.698 257.172L608.51 259ZM601.76 265L600.017 264.019L601.76 265ZM601.76 422.5L603.503 421.519L601.76 422.5ZM608.51 428.5L607.698 430.328L607.716 430.336L607.734 430.343L608.51 428.5ZM623.26 430.5H625.26V428.5H623.26V430.5ZM623.26 433V435H625.26V433H623.26ZM552.51 433V430.5H548.51V433H552.51ZM550.51 432.5H553.76V428.5H550.51V432.5ZM553.76 432.5C558.442 432.5 562.49 431.808 565.822 430.328L564.198 426.672C561.529 427.858 558.077 428.5 553.76 428.5V432.5ZM565.786 430.343C569.309 428.86 572.009 426.581 573.753 423.481L570.267 421.519C569.011 423.752 567.044 425.473 564.234 426.657L565.786 430.343ZM573.753 423.481C575.465 420.436 576.26 416.741 576.26 412.5H572.26C572.26 416.259 571.554 419.23 570.267 421.519L573.753 423.481ZM576.26 412.5L576.26 274H572.26L572.26 412.5H576.26ZM576.26 274C576.26 269.915 575.461 266.365 573.725 263.471L570.295 265.529C571.558 267.635 572.26 270.418 572.26 274H576.26ZM573.725 263.471C571.954 260.52 569.225 258.422 565.701 257.123L564.318 260.877C567.128 261.912 569.065 263.48 570.295 265.529L573.725 263.471ZM565.822 257.172C562.49 255.692 558.442 255 553.76 255V259C558.077 259 561.529 259.642 564.198 260.828L565.822 257.172ZM553.76 255H550.51V259H553.76V255ZM552.51 257V254.5H548.51V257H552.51ZM550.51 256.5H623.26V252.5H550.51V256.5ZM621.26 254.5V257H625.26V254.5H621.26ZM623.26 255H620.01V259H623.26V255ZM620.01 255C615.322 255 611.209 255.693 607.734 257.157L609.286 260.843C612.144 259.64 615.698 259 620.01 259V255ZM607.698 257.172C604.335 258.667 601.743 260.95 600.017 264.019L603.503 265.98C604.776 263.717 606.685 262 609.322 260.828L607.698 257.172ZM600.017 264.019C598.304 267.064 597.51 270.759 597.51 275H601.51C601.51 271.241 602.215 268.27 603.503 265.98L600.017 264.019ZM597.51 275L597.51 412.5H601.51L601.51 275H597.51ZM597.51 412.5C597.51 416.741 598.304 420.436 600.017 423.481L603.503 421.519C602.215 419.23 601.51 416.259 601.51 412.5H597.51ZM600.017 423.481C601.743 426.55 604.335 428.833 607.698 430.328L609.322 426.672C606.685 425.5 604.776 423.783 603.503 421.519L600.017 423.481ZM607.734 430.343C611.209 431.807 615.322 432.5 620.01 432.5V428.5C615.698 428.5 612.144 427.86 609.286 426.657L607.734 430.343ZM620.01 432.5H623.26V428.5H620.01V432.5ZM621.26 430.5V433H625.26V430.5H621.26ZM623.26 431L550.51 431V435L623.26 435V431ZM675.307 433L674.764 434.925L674.787 434.931L674.81 434.937L675.307 433ZM658.557 425.75L657.406 427.386L657.44 427.41L657.475 427.432L658.557 425.75ZM648.307 414.75L650.052 413.773L648.307 414.75ZM646.807 391.5L645.063 390.519L645.052 390.539L645.042 390.559L646.807 391.5ZM653.057 385.5L652.162 383.711L653.057 385.5ZM662.807 383.5L664.806 383.469L664.776 381.5H662.807V383.5ZM666.807 411L664.909 411.632L664.918 411.658L664.927 411.683L666.807 411ZM678.807 427.5L679.94 425.852L678.807 427.5ZM724.807 423.75L726.183 425.201L726.184 425.2L724.807 423.75ZM730.557 377.75L728.82 378.742L728.833 378.765L728.847 378.788L730.557 377.75ZM717.307 365.25L716.23 366.935L716.257 366.953L716.284 366.969L717.307 365.25ZM693.557 352.75L692.686 354.55L692.705 354.56L692.724 354.569L693.557 352.75ZM677.557 344.75L676.576 346.493L676.608 346.511L676.641 346.528L677.557 344.75ZM662.557 334.25L661.198 335.718L661.226 335.744L661.255 335.769L662.557 334.25ZM651.557 319.25L649.729 320.062L649.743 320.093L649.758 320.124L651.557 319.25ZM654.057 272.75L652.368 271.679L654.057 272.75ZM672.307 257.25L671.505 255.418L671.498 255.421L671.491 255.424L672.307 257.25ZM725.807 256L725.109 257.874L725.116 257.877L725.123 257.88L725.807 256ZM742.807 266.5L741.337 267.857L741.351 267.872L741.365 267.886L742.807 266.5ZM743.557 292.25L744.733 293.867L744.757 293.85L744.78 293.833L743.557 292.25ZM729.307 296.25H727.307V298.25H729.307V296.25ZM726.307 273.25L724.39 273.82L724.397 273.844L724.404 273.867L726.307 273.25ZM683.307 258.5L684.225 260.276L684.249 260.264L684.273 260.251L683.307 258.5ZM672.057 270L670.279 269.083L670.273 269.094L670.268 269.106L672.057 270ZM672.807 308.75L674.522 307.721L672.807 308.75ZM686.307 321.75L685.264 323.457L685.291 323.473L685.319 323.489L686.307 321.75ZM709.307 333.5L708.452 335.308L708.461 335.313L708.471 335.317L709.307 333.5ZM732.307 345.5L731.284 347.219L731.293 347.224L731.301 347.229L732.307 345.5ZM749.557 361.25L747.906 362.379L749.557 361.25ZM749.057 412.5L747.369 411.426L747.361 411.44L747.352 411.454L749.057 412.5ZM729.057 429.5L728.232 427.678L728.225 427.681L728.219 427.684L729.057 429.5ZM697.307 433.5C689.273 433.5 682.111 432.68 675.803 431.063L674.81 434.937C681.503 436.653 689.007 437.5 697.307 437.5V433.5ZM675.85 431.075C669.5 429.284 664.107 426.94 659.638 424.068L657.475 427.432C662.34 430.56 668.113 433.049 674.764 434.925L675.85 431.075ZM659.708 424.114C655.415 421.094 652.218 417.641 650.052 413.773L646.562 415.727C649.062 420.192 652.698 424.073 657.406 427.386L659.708 424.114ZM650.052 413.773C647.893 409.919 646.807 405.675 646.807 401H642.807C642.807 406.325 644.053 411.248 646.562 415.727L650.052 413.773ZM646.807 401C646.807 397.384 647.437 394.567 648.571 392.441L645.042 390.559C643.509 393.433 642.807 396.949 642.807 401H646.807ZM648.55 392.481C649.859 390.152 651.651 388.439 653.951 387.289L652.162 383.711C649.128 385.228 646.754 387.514 645.063 390.519L648.55 392.481ZM653.951 387.289C656.272 386.128 659.198 385.5 662.807 385.5V381.5C658.749 381.5 655.174 382.205 652.162 383.711L653.951 387.289ZM660.807 383.531C660.976 394.499 662.326 403.881 664.909 411.632L668.704 410.368C666.288 403.119 664.971 394.168 664.806 383.469L660.807 383.531ZM664.927 411.683C667.706 419.326 671.931 425.2 677.674 429.148L679.94 425.852C675.015 422.466 671.24 417.341 668.686 410.316L664.927 411.683ZM677.674 429.148C683.418 433.098 690.591 435 699.057 435V431C691.188 431 684.862 429.236 679.94 425.852L677.674 429.148ZM699.057 435C710.132 435 719.242 431.786 726.183 425.201L723.43 422.299C717.371 428.048 709.315 431 699.057 431V435ZM726.184 425.2C733.365 418.378 736.807 408.53 736.807 396H732.807C732.807 407.803 729.582 416.455 723.429 422.3L726.184 425.2ZM736.807 396C736.807 388.265 735.348 381.788 732.266 376.712L728.847 378.788C731.432 383.046 732.807 388.735 732.807 396H736.807ZM732.293 376.758C729.407 371.707 724.696 367.317 718.329 363.531L716.284 366.969C722.25 370.516 726.373 374.459 728.82 378.742L732.293 376.758ZM718.383 363.565C712.276 359.663 704.268 355.452 694.389 350.931L692.724 354.569C702.512 359.048 710.337 363.171 716.23 366.935L718.383 363.565ZM694.428 350.95C689.277 348.457 683.959 345.798 678.473 342.972L676.641 346.528C682.154 349.368 687.503 352.043 692.686 354.55L694.428 350.95ZM678.537 343.007C673.318 340.071 668.426 336.647 663.858 332.731L661.255 335.769C666.021 339.853 671.128 343.429 676.576 346.493L678.537 343.007ZM663.915 332.782C659.608 328.794 656.087 323.999 653.356 318.376L649.758 320.124C652.693 326.168 656.505 331.372 661.198 335.718L663.915 332.782ZM653.384 318.438C650.855 312.748 649.557 305.953 649.557 298H645.557C645.557 306.38 646.925 313.752 649.729 320.062L653.384 318.438ZM649.557 298C649.557 288.29 651.659 280.266 655.746 273.821L652.368 271.679C647.788 278.901 645.557 287.71 645.557 298H649.557ZM655.746 273.821C659.855 267.34 665.625 262.426 673.122 259.076L671.491 255.424C663.321 259.074 656.924 264.493 652.368 271.679L655.746 273.821ZM673.108 259.082C680.806 255.715 689.856 254 700.307 254V250C689.424 250 679.807 251.785 671.505 255.418L673.108 259.082ZM700.307 254C709.967 254 718.219 255.311 725.109 257.874L726.504 254.126C719.061 251.356 710.313 250 700.307 250V254ZM725.123 257.88C732.25 260.471 737.612 263.821 741.337 267.857L744.276 265.143C740.001 260.512 734.03 256.862 726.49 254.12L725.123 257.88ZM741.365 267.886C745.236 271.912 747.057 276.184 747.057 280.75H751.057C751.057 274.982 748.71 269.754 744.248 265.114L741.365 267.886ZM747.057 280.75C747.057 284.995 745.486 288.231 742.334 290.667L744.78 293.833C748.96 290.602 751.057 286.172 751.057 280.75H747.057ZM742.38 290.633C739.142 292.988 734.839 294.25 729.307 294.25V298.25C735.441 298.25 740.638 296.846 744.733 293.867L742.38 290.633ZM731.307 296.25C731.307 286.953 730.294 279.063 728.209 272.633L724.404 273.867C726.319 279.771 727.307 287.213 727.307 296.25H731.307ZM728.224 272.68C726.291 266.18 722.99 261.108 718.237 257.635L715.877 260.865C719.79 263.725 722.655 267.987 724.39 273.82L728.224 272.68ZM718.237 257.635C713.47 254.152 707.352 252.5 700.057 252.5V256.5C706.761 256.5 711.977 258.015 715.877 260.865L718.237 257.635ZM700.057 252.5C693.436 252.5 687.511 253.896 682.341 256.749L684.273 260.251C688.769 257.77 694.011 256.5 700.057 256.5V252.5ZM682.388 256.724C677.16 259.427 673.122 263.574 670.279 269.083L673.834 270.917C676.324 266.092 679.786 262.573 684.225 260.276L682.388 256.724ZM670.268 269.106C667.587 274.467 666.307 281.132 666.307 289H670.307C670.307 281.535 671.526 275.533 673.846 270.894L670.268 269.106ZM666.307 289C666.307 297.391 667.845 304.368 671.092 309.779L674.522 307.721C671.768 303.132 670.307 296.943 670.307 289H666.307ZM671.092 309.779C674.289 315.107 679.045 319.656 685.264 323.457L687.35 320.043C681.569 316.511 677.325 312.393 674.522 307.721L671.092 309.779ZM685.319 323.489C691.543 327.022 699.258 330.962 708.452 335.308L710.161 331.692C701.022 327.372 693.403 323.478 687.294 320.011L685.319 323.489ZM708.471 335.317C716.748 339.124 724.351 343.092 731.284 347.219L733.33 343.781C726.262 339.574 718.532 335.542 710.142 331.683L708.471 335.317ZM731.301 347.229C738.232 351.258 743.754 356.311 747.906 362.379L751.207 360.121C746.693 353.523 740.715 348.075 733.312 343.771L731.301 347.229ZM747.906 362.379C751.945 368.283 754.057 376.183 754.057 386.25H758.057C758.057 375.65 755.835 366.884 751.207 360.121L747.906 362.379ZM754.057 386.25C754.057 396.102 751.799 404.465 747.369 411.426L750.744 413.574C755.647 405.868 758.057 396.731 758.057 386.25H754.057ZM747.352 411.454C743.087 418.404 736.749 423.821 728.232 427.678L729.882 431.322C739.031 427.179 746.026 421.262 750.761 413.546L747.352 411.454ZM728.219 427.684C719.883 431.531 709.603 433.5 697.307 433.5V437.5C710.01 437.5 720.897 435.469 729.895 431.316L728.219 427.684ZM778.543 433H776.543V435H778.543V433ZM778.543 430.5V428.5H776.543V430.5H778.543ZM793.043 428.5L792.267 426.657L792.249 426.664L792.231 426.672L793.043 428.5ZM800.043 422.5L798.3 421.519L800.043 422.5ZM800.043 264.5L798.328 265.529L800.043 264.5ZM793.043 259L792.231 260.828L792.29 260.854L792.352 260.877L793.043 259ZM778.543 257H776.543V259H778.543V257ZM778.543 254.5V252.5H776.543V254.5H778.543ZM851.293 254.5H853.293V252.5H851.293V254.5ZM851.293 257V259H853.293V257H851.293ZM836.543 259L835.767 257.157L835.749 257.164L835.731 257.172L836.543 259ZM829.793 265L828.05 264.019L829.793 265ZM827.543 338.5H825.543V340.5H827.543V338.5ZM908.543 338.5V340.5H910.543V338.5H908.543ZM906.293 265L908.036 264.019L906.293 265ZM884.793 257H882.793V259H884.793V257ZM884.793 254.5V252.5H882.793V254.5H884.793ZM957.543 254.5H959.543V252.5H957.543V254.5ZM957.543 257V259H959.543V257H957.543ZM943.043 259L943.768 260.864L943.812 260.847L943.855 260.828L943.043 259ZM936.043 264.5L934.379 263.391L934.352 263.43L934.328 263.471L936.043 264.5ZM936.043 422.5L934.3 423.481L934.323 423.521L934.347 423.56L936.043 422.5ZM943.043 428.5L943.855 426.672L943.043 428.5ZM957.543 430.5H959.543V428.5H957.543V430.5ZM957.543 433V435H959.543V433H957.543ZM884.793 433H882.793V435H884.793V433ZM884.793 430.5V428.5H882.793V430.5H884.793ZM899.543 428.5L898.731 426.672L899.543 428.5ZM906.293 422.5L904.55 421.519L906.293 422.5ZM908.543 341H910.543V339H908.543V341ZM827.543 341V339H825.543V341H827.543ZM829.793 422.5L831.536 421.519L829.793 422.5ZM836.543 428.5L835.731 430.328L835.749 430.336L835.767 430.343L836.543 428.5ZM851.293 430.5H853.293V428.5H851.293V430.5ZM851.293 433V435H853.293V433H851.293ZM780.543 433V430.5H776.543V433H780.543ZM778.543 432.5H781.793V428.5H778.543V432.5ZM781.793 432.5C786.475 432.5 790.523 431.808 793.855 430.328L792.231 426.672C789.563 427.858 786.111 428.5 781.793 428.5V432.5ZM793.819 430.343C797.342 428.86 800.042 426.581 801.786 423.481L798.3 421.519C797.044 423.752 795.077 425.473 792.267 426.657L793.819 430.343ZM801.786 423.481C803.498 420.436 804.293 416.741 804.293 412.5H800.293C800.293 416.259 799.587 419.23 798.3 421.519L801.786 423.481ZM804.293 412.5L804.293 274H800.293L800.293 412.5H804.293ZM804.293 274C804.293 269.915 803.494 266.365 801.758 263.471L798.328 265.529C799.592 267.635 800.293 270.418 800.293 274H804.293ZM801.758 263.471C799.987 260.52 797.258 258.422 793.734 257.123L792.352 260.877C795.161 261.912 797.099 263.48 798.328 265.529L801.758 263.471ZM793.855 257.172C790.523 255.692 786.475 255 781.793 255V259C786.111 259 789.563 259.642 792.231 260.828L793.855 257.172ZM781.793 255H778.543V259H781.793V255ZM780.543 257V254.5H776.543V257H780.543ZM778.543 256.5H851.293V252.5L778.543 252.5V256.5ZM849.293 254.5V257H853.293V254.5H849.293ZM851.293 255H848.043V259H851.293V255ZM848.043 255C843.355 255 839.242 255.693 835.767 257.157L837.319 260.843C840.177 259.64 843.731 259 848.043 259V255ZM835.731 257.172C832.368 258.667 829.777 260.95 828.05 264.019L831.536 265.98C832.809 263.717 834.718 262 837.355 260.828L835.731 257.172ZM828.05 264.019C826.337 267.064 825.543 270.759 825.543 275H829.543C829.543 271.241 830.249 268.27 831.536 265.98L828.05 264.019ZM825.543 275V338.5H829.543V275H825.543ZM827.543 340.5H908.543V336.5H827.543V340.5ZM910.543 338.5V275H906.543V338.5H910.543ZM910.543 275C910.543 270.759 909.749 267.064 908.036 264.019L904.55 265.98C905.837 268.27 906.543 271.241 906.543 275H910.543ZM908.036 264.019C906.309 260.95 903.718 258.667 900.355 257.172L898.731 260.828C901.368 262 903.277 263.717 904.55 265.98L908.036 264.019ZM900.355 257.172C897.016 255.688 892.88 255 888.043 255V259C892.539 259 896.07 259.645 898.731 260.828L900.355 257.172ZM888.043 255H884.793V259H888.043V255ZM886.793 257V254.5H882.793V257H886.793ZM884.793 256.5H957.543V252.5H884.793V256.5ZM955.543 254.5V257H959.543V254.5H955.543ZM957.543 255H954.293V259H957.543V255ZM954.293 255C949.611 255 945.563 255.692 942.231 257.172L943.855 260.828C946.523 259.642 949.975 259 954.293 259V255ZM942.318 257.136C938.964 258.44 936.29 260.524 934.379 263.391L937.707 265.609C939.129 263.476 941.122 261.893 943.768 260.864L942.318 257.136ZM934.328 263.471C932.592 266.365 931.793 269.915 931.793 274H935.793C935.793 270.418 936.494 267.635 937.758 265.529L934.328 263.471ZM931.793 274L931.793 412.5H935.793L935.793 274H931.793ZM931.793 412.5C931.793 416.741 932.587 420.436 934.3 423.481L937.786 421.519C936.499 419.23 935.793 416.259 935.793 412.5H931.793ZM934.347 423.56C936.235 426.58 938.883 428.84 942.231 430.328L943.855 426.672C941.203 425.494 939.185 423.753 937.739 421.44L934.347 423.56ZM942.231 430.328C945.563 431.808 949.611 432.5 954.293 432.5V428.5C949.975 428.5 946.523 427.858 943.855 426.672L942.231 430.328ZM954.293 432.5H957.543V428.5H954.293V432.5ZM955.543 430.5V433H959.543V430.5H955.543ZM957.543 431L884.793 431V435L957.543 435V431ZM886.793 433V430.5H882.793V433H886.793ZM884.793 432.5H888.043V428.5H884.793V432.5ZM888.043 432.5C892.88 432.5 897.016 431.812 900.355 430.328L898.731 426.672C896.07 427.855 892.539 428.5 888.043 428.5V432.5ZM900.355 430.328C903.718 428.833 906.309 426.55 908.036 423.481L904.55 421.519C903.277 423.783 901.368 425.5 898.731 426.672L900.355 430.328ZM908.036 423.481C909.749 420.436 910.543 416.741 910.543 412.5H906.543C906.543 416.259 905.837 419.23 904.55 421.519L908.036 423.481ZM910.543 412.5L910.543 341H906.543L906.543 412.5H910.543ZM908.543 339H827.543V343H908.543V339ZM825.543 341L825.543 412.5H829.543L829.543 341H825.543ZM825.543 412.5C825.543 416.741 826.337 420.436 828.05 423.481L831.536 421.519C830.249 419.23 829.543 416.259 829.543 412.5H825.543ZM828.05 423.481C829.777 426.55 832.368 428.833 835.731 430.328L837.355 426.672C834.718 425.5 832.809 423.783 831.536 421.519L828.05 423.481ZM835.767 430.343C839.242 431.807 843.355 432.5 848.043 432.5V428.5C843.731 428.5 840.177 427.86 837.319 426.657L835.767 430.343ZM848.043 432.5H851.293V428.5H848.043V432.5ZM849.293 430.5V433H853.293V430.5H849.293ZM851.293 431H778.543V435H851.293V431Z" fill="black"/>
</g>
<defs>
<filter id="filter0_d_293_684" x="0.5" y="0.5" width="997.043" height="481" filterUnits="userSpaceOnUse" color-interpolation-filters="sRGB">
<feFlood flood-opacity="0" result="BackgroundImageFix"/>
<feColorMatrix in="SourceAlpha" type="matrix" values="0 0 0 0 0 0 0 0 0 0 0 0 0 0 0 0 0 0 127 0" result="hardAlpha"/>
<feOffset dy="6"/>
<feGaussianBlur stdDeviation="20"/>
<feComposite in2="hardAlpha" operator="out"/>
<feColorMatrix type="matrix" values="0 0 0 0 0 0 0 0 0 0 0 0 0 0 0 0 0 0 0.9 0"/>
<feBlend mode="normal" in2="BackgroundImageFix" result="effect1_dropShadow_293_684"/>
<feBlend mode="normal" in="SourceGraphic" in2="effect1_dropShadow_293_684" result="shape"/>
</filter>
</defs>
</svg>
