<svg width="26" height="23" viewBox="0 0 26 23" fill="black" stroke="red" xmlns="http://www.w3.org/2000/svg">
<style>
.heart-svg {
    fill:black;
}
</style>
<path d="M18.7295 0.692871C17.7408 0.694021 16.7627 0.897724 15.8558 1.29142C14.9488 1.68511 14.1321 2.26044 13.4561 2.98193C12.4653 1.92455 11.1796 1.18942 9.76579 0.871981C8.35199 0.554537 6.87541 0.669439 5.52773 1.20177C4.18006 1.7341 3.02353 2.65928 2.2083 3.85719C1.39306 5.05511 0.956768 6.47043 0.956055 7.91943C0.956055 15.1147 12.5615 22.1772 13.0654 22.4546C13.1869 22.5276 13.326 22.5662 13.4678 22.5662C13.6095 22.5662 13.7486 22.5276 13.8701 22.4546C14.3506 22.1772 25.9561 15.1147 25.9561 7.91943C25.954 6.00346 25.192 4.16656 23.8372 2.81177C22.4824 1.45697 20.6455 0.694939 18.7295 0.692871ZM13.4561 20.8647C11.4365 19.5757 2.51855 13.5522 2.51855 7.91943C2.51956 6.71629 2.90365 5.54471 3.61518 4.57451C4.3267 3.60431 5.32868 2.88588 6.47591 2.52334C7.62314 2.16081 8.85601 2.173 9.99584 2.55816C11.1357 2.94332 12.1232 3.68144 12.8154 4.66553C12.8875 4.76789 12.9832 4.85142 13.0944 4.90908C13.2055 4.96674 13.3289 4.99683 13.4541 4.99683C13.5793 4.99683 13.7027 4.96674 13.8138 4.90908C13.925 4.85142 14.0207 4.76789 14.0928 4.66553C14.7844 3.67974 15.7722 2.94004 16.9128 2.55379C18.0533 2.16755 19.2873 2.15487 20.4356 2.5176C21.5839 2.88032 22.5867 3.59958 23.2984 4.57094C24.0101 5.54231 24.3937 6.71523 24.3936 7.91943C24.3936 13.5483 15.4756 19.5718 13.4561 20.8647Z" class="heart-svg"/>
</svg>
